<svg height="150px" viewBox="0 0 512 512" width="150px" xmlns="http://www.w3.org/2000/svg"><path d="m102.398438 8.535156h366.933593c18.851563 0 34.132813 15.28125 34.132813 34.132813v426.664062c0 18.851563-15.28125 34.132813-34.132813 34.132813h-366.933593c-18.851563 0-34.132813-15.28125-34.132813-34.132813v-426.664062c0-18.851563 15.28125-34.132813 34.132813-34.132813zm0 0" fill="#0377bc"/><path d="m102.398438 8.535156h341.335937c18.851563 0 34.132813 15.28125 34.132813 34.132813v426.664062c0 18.851563-15.28125 34.132813-34.132813 34.132813h-341.335937c-18.851563 0-34.132813-15.28125-34.132813-34.132813v-426.664062c0-18.851563 15.28125-34.132813 34.132813-34.132813zm0 0" fill="#02a9f4"/><path d="m187.734375 8.535156v494.929688h-85.335937c-18.851563 0-34.132813-15.28125-34.132813-34.132813v-426.664062c0-18.851563 15.28125-34.132813 34.132813-34.132813zm0 0" fill="#3f51b5"/><g fill="#607d8b"><path d="m96.683594 144.894531c13.679687 12.25 34.601562 11.480469 47.34375-1.738281 12.742187-13.222656 12.742187-34.15625 0-47.378906-12.742188-13.21875-33.664063-13.988282-47.34375-1.738282zm0 0"/><path d="m96.683594 417.960938c13.679687 12.25 34.601562 11.480468 47.34375-1.738282 12.742187-13.222656 12.742187-34.15625 0-47.378906-12.742188-13.21875-33.664063-13.988281-47.34375-1.738281zm0 0"/><path d="m96.683594 281.429688c13.679687 12.25 34.601562 11.480468 47.34375-1.742188 12.742187-13.21875 12.742187-34.15625 0-47.375-12.742188-13.222656-33.664063-13.992188-47.34375-1.742188zm0 0"/></g><path d="m452.265625 209.066406c0 58.910156-47.753906 106.667969-106.664063 106.667969-58.910156 0-106.667968-47.757813-106.667968-106.667969s47.757812-106.667968 106.667968-106.667968c58.910157 0 106.664063 47.757812 106.664063 106.667968zm0 0" fill="#cfd8dc"/><path d="m390.042969 194.492188c0 24.542968-19.898438 44.441406-44.441407 44.441406-24.546874 0-44.441406-19.898438-44.441406-44.441406 0-24.542969 19.894532-44.441407 44.441406-44.441407 24.542969 0 44.441407 19.898438 44.441407 44.441407zm0 0" fill="#ffe0b2"/><path d="m34.132812 93.867188h59.734376c14.136718 0 25.597656 11.460937 25.597656 25.597656 0 14.140625-11.460938 25.601562-25.597656 25.601562h-59.734376c-14.136718 0-25.597656-11.460937-25.597656-25.601562 0-14.136719 11.460938-25.597656 25.597656-25.597656zm0 0" fill="#cfd8dc"/><path d="m34.132812 366.933594h59.734376c14.136718 0 25.597656 11.460937 25.597656 25.601562 0 14.136719-11.460938 25.597656-25.597656 25.597656h-59.734376c-14.136718 0-25.597656-11.460937-25.597656-25.597656 0-14.140625 11.460938-25.601562 25.597656-25.601562zm0 0" fill="#cfd8dc"/><path d="m34.132812 230.398438h59.734376c14.136718 0 25.597656 11.464843 25.597656 25.601562s-11.460938 25.601562-25.597656 25.601562h-59.734376c-14.136718 0-25.597656-11.464843-25.597656-25.601562s11.460938-25.601562 25.597656-25.601562zm0 0" fill="#cfd8dc"/><path d="m431.105469 272.894531v.085938c-20.1875 26.914062-51.863281 42.753906-85.503907 42.753906-33.644531 0-65.320312-15.839844-85.503906-42.753906v-.085938c8.753906-23.566406 27.902344-41.769531 51.882813-49.320312 8.445312 9.753906 20.714843 15.359375 33.621093 15.359375 12.902344 0 25.171876-5.605469 33.621094-15.359375 23.976563 7.550781 43.125 25.753906 51.882813 49.320312zm0 0" fill="#f44335"/><path d="m469.332031 0h-366.933593c-23.550782.0273438-42.636719 19.113281-42.664063 42.667969v42.664062h-25.601563c-18.851562 0-34.132812 15.285157-34.132812 34.132813 0 18.851562 15.28125 34.136718 34.132812 34.136718h25.601563v68.265626h-25.601563c-18.851562 0-34.132812 15.28125-34.132812 34.132812s15.28125 34.132812 34.132812 34.132812h25.601563v68.265626h-25.601563c-18.851562 0-34.132812 15.285156-34.132812 34.136718 0 18.847656 15.28125 34.132813 34.132812 34.132813h25.601563v42.664062c.027344 23.554688 19.113281 42.640625 42.664063 42.667969h366.933593c23.554688-.027344 42.640625-19.113281 42.667969-42.667969v-426.664062c-.027344-23.554688-19.113281-42.6406252-42.667969-42.667969zm-452.265625 119.464844c0-9.425782 7.640625-17.066406 17.066406-17.066406h59.734376c9.425781 0 17.066406 7.640624 17.066406 17.066406 0 9.425781-7.640625 17.070312-17.066406 17.070312h-59.734376c-9.425781 0-17.066406-7.644531-17.066406-17.070312zm99.464844-25.324219c.972656-.152344 1.953125-.242187 2.933594-.273437 14.140625 0 25.601562 11.460937 25.601562 25.597656 0 14.140625-11.460937 25.601562-25.601562 25.601562-.980469-.03125-1.960938-.121094-2.933594-.273437 7.289062-6.398438 11.46875-15.625 11.46875-25.328125 0-9.699219-4.179688-18.925782-11.46875-25.324219zm-99.464844 161.859375c0-9.425781 7.640625-17.066406 17.066406-17.066406h59.734376c9.425781 0 17.066406 7.640625 17.066406 17.066406s-7.640625 17.066406-17.066406 17.066406h-59.734376c-9.425781 0-17.066406-7.640625-17.066406-17.066406zm99.464844-25.328125c.972656-.148437 1.953125-.242187 2.933594-.273437 14.140625 0 25.601562 11.464843 25.601562 25.601562s-11.460937 25.601562-25.601562 25.601562c-.980469-.03125-1.960938-.125-2.933594-.273437 7.289062-6.398437 11.46875-15.628906 11.46875-25.328125s-4.179688-18.929688-11.46875-25.328125zm-99.464844 161.863281c0-9.425781 7.640625-17.070312 17.066406-17.070312h59.734376c9.425781 0 17.066406 7.644531 17.066406 17.070312 0 9.425782-7.640625 17.066406-17.066406 17.066406h-59.734376c-9.425781 0-17.066406-7.640624-17.066406-17.066406zm99.464844-25.328125c.972656-.152343 1.953125-.242187 2.933594-.273437 14.140625 0 25.601562 11.460937 25.601562 25.601562 0 14.136719-11.460937 25.597656-25.601562 25.597656-.980469-.03125-1.960938-.121093-2.933594-.273437 7.289062-6.398437 11.46875-15.625 11.46875-25.324219 0-9.703125-4.179688-18.929687-11.46875-25.328125zm-39.730469 102.125v-42.664062h17.320313c17.597656 13.222656 42.371094 10.890625 57.1875-5.390625 14.820312-16.277344 14.820312-41.160156 0-57.4375-14.816406-16.28125-39.589844-18.613282-57.1875-5.386719l-.253906-.054687h-17.066407v-68.265626h17.320313c17.597656 13.226563 42.371094 10.894532 57.1875-5.386718 14.820312-16.28125 14.820312-41.160156 0-57.441406-14.816406-16.277344-39.589844-18.613282-57.1875-5.386719-.082032 0-.167969 0-.253906 0h-17.066407v-68.316407h17.066407.253906c17.597656 13.222657 42.371094 10.890626 57.1875-5.390624 14.820312-16.277344 14.820312-41.160157 0-57.4375-14.816406-16.28125-39.589844-18.613282-57.1875-5.390626l-.253906-.050781h-17.066407v-42.664062c0-14.140625 11.460938-25.601563 25.597657-25.601563h76.800781v477.867188h-76.800781c-14.136719 0-25.597657-11.460938-25.597657-25.601563zm418.132813 0c0 14.140625-11.460938 25.601563-25.601563 25.601563h-273.066406v-477.867188h273.066406c14.140625 0 25.601563 11.460938 25.601563 25.601563zm0 0"/><path d="m345.601562 93.867188c-43.242187-.078126-82.871093 24.105468-102.574218 62.597656-19.703125 38.488281-16.148438 84.777344 9.199218 119.808594.511719 1.15625 1.28125 2.179687 2.246094 2.996093 21.726563 28.378907 55.4375 45.015625 91.175782 45 35.742187-.015625 69.433593-16.679687 91.140624-45.074219.757813-.703124 1.378907-1.535156 1.839844-2.460937 25.582032-34.984375 29.320313-81.382813 9.667969-120.015625-19.652344-38.628906-59.355469-62.929688-102.695313-62.851562zm0 213.332031c-29.3125.003906-57.085937-13.113281-75.699218-35.753907 7.894531-17.371093 22.273437-30.960937 40.0625-37.871093 20.144531 18.523437 51.125 18.523437 71.269531 0 17.804687 6.898437 32.199219 20.492187 40.109375 37.871093-18.625 22.652344-46.417969 35.769532-75.742188 35.753907zm0-76.800781c-14.53125.003906-27.628906-8.746094-33.191406-22.167969s-2.488281-28.871094 7.785156-39.144531c10.273438-10.273438 25.722657-13.34375 39.144532-7.785157 13.421875 5.5625 22.171875 18.664063 22.167968 33.191407-.023437 19.820312-16.085937 35.882812-35.90625 35.90625zm86.550782 24.824218c-9.496094-15.550781-23.402344-27.929687-39.953125-35.558594 12.050781-22.285156 6.632812-49.984374-12.925781-66.089843-19.5625-16.105469-47.785157-16.105469-67.34375 0-19.5625 16.105469-24.980469 43.804687-12.929688 66.089843-16.550781 7.628907-30.457031 20.007813-39.953125 35.558594-22.0625-41.289062-11.886719-92.410156 24.300781-122.105468 36.191406-29.695313 88.316406-29.695313 124.503906 0 36.1875 29.695312 46.363282 80.816406 24.300782 122.105468zm0 0"/><path d="m435.199219 358.398438h-179.199219c-4.710938 0-8.535156 3.820312-8.535156 8.535156 0 4.710937 3.824218 8.53125 8.535156 8.53125h179.199219c4.714843 0 8.535156-3.820313 8.535156-8.53125 0-4.714844-3.820313-8.535156-8.535156-8.535156zm0 0"/><path d="m315.734375 392.535156h-59.734375c-4.710938 0-8.535156 3.820313-8.535156 8.53125 0 4.714844 3.824218 8.535156 8.535156 8.535156h59.734375c4.710937 0 8.53125-3.820312 8.53125-8.535156 0-4.710937-3.820313-8.53125-8.53125-8.53125zm0 0"/><path d="m435.199219 392.535156h-76.800781c-4.710938 0-8.53125 3.820313-8.53125 8.53125 0 4.714844 3.820312 8.535156 8.53125 8.535156h76.800781c4.714843 0 8.535156-3.820312 8.535156-8.535156 0-4.710937-3.820313-8.53125-8.535156-8.53125zm0 0"/></svg>
