<?xml version="1.0" encoding="iso-8859-1"?>
<!-- Generator: Adobe Illustrator 19.0.0, SVG Export Plug-In . SVG Version: 6.00 Build 0)  -->
<svg version="1.1" id="Layer_1" xmlns="http://www.w3.org/2000/svg" x="0px" y="0px"
     width="50px" height="50px" viewBox="0 0 349.532 349.532" style="enable-background:new 0 0 349.532 349.532;"
     xml:space="preserve">
<g>
	<g>
		<path fill="#faab3d" d="M254.495,157.006l-11.525-11.525c-3.354-3.698-8.429-5.677-13.503-5.677c-5.075,0-9.891,1.978-13.503,5.677L201.6,159.844
			V32.726c0.001-10.407-7.912-17.718-18.921-17.718h-16.083c-11.009,0-19.437,7.569-19.437,17.718v127.979l-14.965-15.223
			c-3.698-3.698-8.429-5.677-13.503-5.677c-5.075,0-9.891,1.978-13.503,5.677L93.92,157.007c-3.698,3.698-5.677,8.429-5.677,13.503
			s1.978,9.891,5.677,13.503l66.999,67.17c3.698,3.698,8.429,5.677,13.847,5.677c5.075,0,9.891-1.978,12.643-5.677l67.086-67.086
			C262.064,176.787,262.064,164.66,254.495,157.006z M251.313,180.486l-67.086,67.085c-2.494,2.494-5.935,3.956-9.547,3.956
			c-3.612,0-7.052-1.376-9.547-3.956l-67.085-67.086c-2.494-2.494-3.956-5.935-3.956-9.547c0-3.698,1.462-7.138,3.956-9.632
			l11.267-11.525c2.494-2.494,5.935-3.956,9.547-3.956s7.052,1.376,10.149,3.956l19.696,20.04c0.86,0.86,1.978,1.118,3.096,0.602
			c1.118-0.258,1.72-1.376,1.72-2.494V33.156c0-7.913,7.052-12.127,13.847-12.127h16.083c7.913,0,13.245,5.075,13.245,12.127
			v133.913c0,1.118,0.602,1.978,1.72,2.494c1.118,0.602,2.236,0.258,3.096-0.602l19.179-19.179c2.494-2.494,5.935-3.956,9.547-3.956
			c3.612,0,7.052,1.376,9.547,3.956l11.525,11.525C256.646,166.639,256.646,175.154,251.313,180.486z"/>
	</g>
</g>
    <g>
	<g>
		<path fill="#faab3d" d="M242.368,163.284l-5.333-5.333c-3.698-3.698-10.407-3.698-14.105,0l-34.661,34.661V64.032c0-1.72-1.118-2.838-2.838-2.838
			c-1.72,0-2.838,1.118-2.838,2.838v135.29c0,1.118,0.86,1.978,1.72,2.494c1.118,0.602,2.236,0.258,3.096-0.258l0.602-0.602
			c0.258-0.258,0.258-0.258,0.258-0.258l38.875-38.617c1.72-1.72,4.472-1.72,6.193,0l5.333,5.333c1.72,1.72,1.72,4.472,0,6.193
			l-60.635,60.635c-0.602,0.86-1.72,1.118-3.096,1.118c-1.118,0.258-2.236-0.258-3.096-1.118l-60.635-60.635
			c-0.602-0.86-1.118-1.978-1.118-3.096c0-1.118,0.258-2.236,1.118-3.096l5.333-5.333c1.72-1.72,4.214-1.72,5.935,0l38.359,38.617
			l1.118,1.376c0.86,0.86,1.978,1.118,3.096,0.86c0.86-0.258,1.72-1.376,1.72-2.494V37.198c0-2.838,3.956-2.838,4.816-2.838h7.569
			c3.956,0,3.956,1.978,3.956,2.838v7.913c0,1.72,1.118,2.838,2.838,2.838c1.72,0,2.838-1.118,2.838-2.838v-7.913
			c0-5.075-3.698-8.429-9.547-8.429h-7.569c-6.193,0-10.407,3.354-10.407,8.429v156.189l-34.919-34.919
			c-3.956-3.956-10.149-3.956-14.105,0l-5.333,5.333c-1.72,1.978-2.838,4.472-2.838,7.052c0,2.838,0.86,5.075,2.838,7.052
			l60.463,60.635c1.978,1.72,4.472,2.838,7.052,2.838c2.838,0,5.333-1.118,7.311-3.354l60.635-60.635
			C246.324,173.433,246.324,167.24,242.368,163.284z"/>
	</g>
</g>
    <g>
	<g>
		<path d="M335.686,226.155c0-5.418-4.214-9.374-9.891-9.374h-7.569c-5.677,0-9.891,3.956-9.891,9.289v55.818
			c0,6.193-4.816,11.267-10.751,11.267H52.035c-5.677,0-10.751-5.333-10.751-11.525l-0.258-55.216c0-5.333-4.214-9.547-9.891-9.547
			h-7.569c-5.677,0-9.891,3.956-9.891,9.289v80.588c0,7.569,6.45,14.105,13.847,14.105h294.574c7.311,0,13.847-6.45,13.847-14.105
			L335.686,226.155z M322.182,315.517H27.609c-4.472,0-8.171-3.956-8.171-8.429V226.5c0-2.494,2.236-3.698,4.214-3.698h7.569
			c2.236,0,4.214,1.72,4.214,3.956l0.258,55.216c0,9.289,7.311,17.201,16.341,17.201h245.55c8.773,0,16.341-7.913,16.341-16.943
			v-55.818c0-2.494,1.978-3.698,4.214-3.698h7.569c1.978,0,4.214,1.118,4.214,3.698l0.258,80.588
			C330.353,311.56,326.655,315.517,322.182,315.517z"/>
	</g>
</g>
    <g>
	<g>
		<path d="M349.274,222.457c0-10.407-8.429-18.921-19.179-18.921h-16.083c-10.407,0-19.179,8.429-19.179,19.179v57.195H54.959
			l-0.258-57.195c0-10.407-8.429-19.179-19.179-19.179H19.438C8.171,203.536,0,211.104,0,221.253v84.545
			c0,15.482,12.643,28.726,27.609,28.726h294.574c14.621,0,27.35-12.987,27.35-27.867L349.274,222.457z M322.182,328.762H27.609
			c-11.869,0-22.018-10.751-22.018-23.136v-84.545c0-7.913,7.052-12.127,13.847-12.127v-0.258h16.083
			c7.311,0,13.503,5.935,13.503,13.503l0.258,60.033c0,1.72,1.118,2.838,2.838,2.838h245.55c0.86,0,1.376-0.258,1.978-0.86
			s0.86-1.118,0.86-1.978v-60.033c0-7.311,5.935-13.503,13.503-13.503h16.083c7.569,0,13.503,5.935,13.503,13.245l0.258,84.287
			C343.857,318.613,334.052,328.762,322.182,328.762z"/>
	</g>
</g>
    <g>
</g>
    <g>
</g>
    <g>
</g>
    <g>
</g>
    <g>
</g>
    <g>
</g>
    <g>
</g>
    <g>
</g>
    <g>
</g>
    <g>
</g>
    <g>
</g>
    <g>
</g>
    <g>
</g>
    <g>
</g>
    <g>
</g>
</svg>
