<?xml version="1.0" encoding="iso-8859-1"?>
<!-- Generator: Adobe Illustrator 19.0.0, SVG Export Plug-In . SVG Version: 6.00 Build 0)  -->
<svg version="1.1" id="Layer_1" xmlns="http://www.w3.org/2000/svg" x="0px" y="0px"
     width="300px" height="300px" viewBox="0 0 491.312 491.312" style="enable-background:new 0 0 491.312 491.312;"
     xml:space="preserve">
<g>
	<path style="fill:#333333;" d="M429.328,352.34c-0.08-0.856-0.232-1.688-0.344-2.536c-0.168-1.24-0.328-2.472-0.568-3.704
		c-0.216-1.128-0.488-2.232-0.76-3.344c-0.208-0.864-0.416-1.72-0.664-2.576c-0.384-1.344-0.824-2.656-1.28-3.96
		c-0.112-0.32-0.192-0.648-0.312-0.968c12.936-12.744,20.256-30.08,20.256-48.424c0-30.408-20.304-56.992-49.064-65.304
		c-6.472-42.328-43.592-74.696-86.936-74.696c-2.928,0-5.824,0.152-8.672,0.432l1.576,15.92c2.336-0.232,4.696-0.352,7.096-0.352
		c37.056,0,68.544,28.912,71.688,65.832l0.504,6.008l5.912,1.168c24.28,4.776,41.896,26.216,41.896,50.992
		c0,12.336-4.384,24.024-12.152,33.304c-12.296-17.68-32.728-29.304-55.848-29.304v16c20.728,0,38.616,12.224,46.96,29.816
		c0.784,1.656,1.472,3.344,2.08,5.04c0.048,0.136,0.104,0.272,0.152,0.408c0.536,1.56,0.976,3.144,1.36,4.736
		c0.064,0.28,0.152,0.56,0.216,0.848c0.328,1.48,0.56,2.976,0.76,4.472c0.048,0.368,0.128,0.728,0.168,1.104
		c0.192,1.848,0.304,3.704,0.304,5.576c0,28.672-23.328,52-52,52c-11.648,0-22.696-3.816-31.944-11.032l-3.28-2.56
		c-10.704-9.792-16.944-23.744-16.944-38.408h-16c0,18.416,7.6,35.912,20.6,48.616c-9.832,12.24-24.504,19.384-40.432,19.384
		c-19.864,0-37.712-11.104-46.56-28.984l-4.928-9.944l-7.88,7.832c-9.808,9.728-22.816,15.096-36.632,15.096
		c-6.328,0-12.456-1.264-18.272-3.472c18.24-12.208,30.272-32.984,30.272-56.528c0-1.704-0.224-3.36-0.344-5.04
		c12.728-2.208,24.624-7.968,34.28-16.824l-10.816-11.8c-7.456,6.832-16.64,11.248-26.48,12.896
		c-5.352-16.704-16.936-30.984-33-39.448l-7.456,14.16c17.16,9.048,27.816,26.688,27.816,46.056
		c0,22.448-14.328,41.56-34.296,48.832c-2.816,1.016-5.672,1.784-8.544,2.312c-0.192,0.032-0.384,0.056-0.576,0.088
		c-2.856,0.488-5.72,0.768-8.584,0.768c-28.672,0-52-23.328-52-52c0-7.696,1.704-15.176,5.064-22.256l2.192-4.608l-3.264-3.928
		c-7.736-9.32-11.992-21.104-11.992-33.208c0-24.688,17.544-46.128,41.712-50.976l6.136-1.224l0.288-6.24
		c1.296-27.792,24.072-49.56,51.864-49.56c6.248,0,12.472,1.16,18.488,3.448l6.112,2.32l3.496-5.512
		c2.664-4.208,5.904-8.008,9.632-11.296l-10.576-12c-3.288,2.896-6.288,6.104-8.952,9.56c-5.976-1.68-12.064-2.52-18.2-2.52
		c-34.32,0-62.808,25.376-67.304,58.792c-28.544,8.44-48.696,34.96-48.696,65.208c0,14.16,4.456,27.992,12.632,39.464
		c-3.08,7.864-4.632,16.096-4.632,24.536c0,37.496,30.504,68,68,68c3.032,0,6-0.272,8.928-0.656
		c0.552-0.072,1.104-0.168,1.656-0.256c2.96-0.464,5.872-1.08,8.704-1.92c11,7.104,23.6,10.832,36.712,10.832
		c14.664,0,28.632-4.616,40.224-13.168c12.608,18.208,33.192,29.168,55.776,29.168c20.976,0,40.296-9.456,53.144-25.656
		c10.52,6.344,22.416,9.656,34.856,9.656c37.496,0,68-30.504,68-68C429.656,356.652,429.536,354.492,429.328,352.34z"/>
    <rect x="237.656" y="2.828" style="fill:#333333;" width="16" height="32"/>
</g>
    <path style="fill:#F9BA48;" d="M285.656,210.828h-80v-28.2c-19.848-13.304-32-35.808-32-59.8c0-39.704,32.296-72,72-72
	s72,32.296,72,72c0,23.992-12.152,46.496-32,59.8V210.828z"/>
    <g>
	
		<rect x="185.656" y="16.769" transform="matrix(-0.866 0.5 -0.5 -0.866 377.7504 -35.6833)" style="fill:#333333;"
              width="16" height="31.999"/>

        <rect x="147.584" y="54.808" transform="matrix(-0.5 0.866 -0.866 -0.5 294.6983 -28.5268)" style="fill:#333333;"
              width="16" height="31.999"/>
        <path style="fill:#333333;" d="M209.656,194.828c-11.032,0-20,8.968-20,20c0,7.12,3.76,13.328,9.368,16.88
		c-0.848,2.216-1.368,4.6-1.368,7.12c0,11.032,8.968,20,20,20h56c11.032,0,20-8.968,20-20c0-2.52-0.52-4.904-1.368-7.12
		c5.608-3.552,9.368-9.76,9.368-16.88c0-11.032-8.968-20-20-20h-28v-49.472c9.288-3.312,16-12.112,16-22.528
		c0-13.232-10.768-24-24-24s-24,10.768-24,24c0,10.416,6.712,19.216,16,22.528v49.472H209.656z M245.656,114.828
		c4.416,0,8,3.584,8,8s-3.584,8-8,8s-8-3.584-8-8S241.24,114.828,245.656,114.828z M273.656,242.828h-56c-2.2,0-4-1.8-4-4s1.8-4,4-4
		h56c2.2,0,4,1.8,4,4S275.856,242.828,273.656,242.828z M285.656,214.828c0,2.2-1.8,4-4,4h-8h-56h-8c-2.2,0-4-1.8-4-4s1.8-4,4-4h72
		C283.856,210.828,285.656,212.628,285.656,214.828z"/>
        <rect x="125.656" y="114.828" style="fill:#333333;" width="32" height="16"/>
        <rect x="333.656" y="114.828" style="fill:#333333;" width="32" height="16"/>

        <rect x="319.739" y="62.815" transform="matrix(-0.8661 0.4999 -0.4999 -0.8661 661.9191 -35.6867)"
              style="fill:#333333;" width="32" height="16"/>

        <rect x="281.65" y="24.792" transform="matrix(-0.4999 0.8661 -0.8661 -0.4999 474.8449 -208.6058)"
              style="fill:#333333;" width="32" height="16"/>
        <polygon style="fill:#333333;" points="21.656,434.828 42.344,434.828 0,477.172 11.312,488.484 53.656,446.14 53.656,466.828
		69.656,466.828 69.656,418.828 21.656,418.828 	"/>
        <polygon style="fill:#333333;" points="469.656,434.828 469.656,418.828 421.656,418.828 421.656,466.828 437.656,466.828
		437.656,446.14 480,488.484 491.312,477.172 448.968,434.828 	"/>
        <polygon style="fill:#333333;" points="21.656,194.828 21.656,210.828 69.656,210.828 69.656,162.828 53.656,162.828
		53.656,183.516 11.312,141.172 0,152.484 42.344,194.828 	"/>
        <polygon style="fill:#333333;" points="469.656,194.828 448.968,194.828 491.312,152.484 480,141.172 437.656,183.516
		437.656,162.828 421.656,162.828 421.656,210.828 469.656,210.828 	"/>
</g>
    <g>
</g>
    <g>
</g>
    <g>
</g>
    <g>
</g>
    <g>
</g>
    <g>
</g>
    <g>
</g>
    <g>
</g>
    <g>
</g>
    <g>
</g>
    <g>
</g>
    <g>
</g>
    <g>
</g>
    <g>
</g>
    <g>
</g>
</svg>
