<?xml version="1.0" encoding="iso-8859-1"?>
<!-- Generator: Adobe Illustrator 19.0.0, SVG Export Plug-In . SVG Version: 6.00 Build 0)  -->
<svg version="1.1" id="Layer_1" xmlns="http://www.w3.org/2000/svg" x="0px" y="0px"
     viewBox="0 0 496 496" style="enable-background:new 0 0 496 496;" xml:space="preserve">
<path style="fill:#F9BA48;" d="M496,168v-64h-37.144c-1.704-5.264-3.816-10.376-6.32-15.272l26.256-26.264L433.536,17.2
	l-26.264,26.256c-4.896-2.504-10.008-4.616-15.272-6.312V0h-64v37.144c-5.264,1.704-10.376,3.816-15.272,6.32L286.464,17.2
	L241.2,62.464l26.256,26.264c-2.504,4.896-4.616,10.008-6.32,15.272H224v64h37.144c1.704,5.264,3.816,10.376,6.32,15.272
	l-26.256,26.264l45.256,45.248l26.256-26.248c4.904,2.496,10.016,4.616,15.28,6.32V272h64v-37.144
	c5.264-1.704,10.376-3.824,15.28-6.32l26.256,26.248l45.256-45.248l-26.256-26.264c2.504-4.896,4.616-10.008,6.32-15.272H496z
	 M360,192c-5.792,0-11.376-0.88-16.632-2.512c-9.224-15-21.856-27.632-36.856-36.856C304.88,147.376,304,141.792,304,136
	c0-30.928,25.072-56,56-56s56,25.072,56,56S390.928,192,360,192z"/>
    <path style="fill:#333333;" d="M424,136c0-35.288-28.712-64-64-64s-64,28.712-64,64c0,0.728,0.136,1.44,0.16,2.168
	C281.408,131.672,265.136,128,248,128c-47.432,0-90.816,28.736-109.784,72H104H48h-8c-22.056,0-40,17.944-40,40s17.944,40,40,40h8
	h56h28.608c7.064,25.56,22.184,47.984,43.392,63.92v16.48c-13.536,1.96-24,13.528-24,27.592c0,10.032,5.352,18.784,13.304,23.728
	C162,416.328,160,421.92,160,428c0,10.032,5.352,18.784,13.304,23.728C170,456.328,168,461.92,168,468c0,15.44,12.56,28,28,28h104
	c15.44,0,28-12.56,28-28c0-6.08-2-11.672-5.304-16.272C330.648,446.784,336,438.032,336,428c0-6.08-2-11.672-5.304-16.272
	C338.648,406.784,344,398.032,344,388c0-14.064-10.464-25.632-24-27.592v-16.48c30.136-22.648,48-58.192,48-95.92
	c0-17.136-3.672-33.408-10.168-48.16c0.728,0.016,1.44,0.152,2.168,0.152C395.288,200,424,171.288,424,136z M131.848,216H208v16H104
	v-16H131.848z M40,264c-13.232,0-24-10.768-24-24s10.768-24,24-24h8v48H40z M64,264v-48h24v48H64z M104,264v-16h104v16h-79.192H104z
	 M308,440h-8H196h-8c-6.616,0-12-5.384-12-12s5.384-12,12-12h120c6.616,0,12,5.384,12,12S314.616,440,308,440z M300,480H196
	c-6.616,0-12-5.384-12-12s5.384-12,12-12h104c6.616,0,12,5.384,12,12S306.616,480,300,480z M328,388c0,6.616-5.384,12-12,12h-8H188
	h-8c-6.616,0-12-5.384-12-12s5.384-12,12-12h136C322.616,376,328,381.384,328,388z M307.424,333.28L304,335.672V360H192v-24.328
	l-3.424-2.392c-18.704-13.064-32.44-31.736-39.392-53.28H224v-80h-68.144c17.744-33.92,53.416-56,92.144-56
	c20.12,0,38.864,5.84,54.8,15.776c13.488,8.408,25.016,19.936,33.424,33.424C346.16,209.136,352,227.88,352,248
	C352,281.912,335.336,313.8,307.424,333.28z M313.392,147.512C312.472,143.76,312,139.896,312,136c0-26.472,21.528-48,48-48
	s48,21.528,48,48s-21.528,48-48,48c-3.896,0-7.76-0.472-11.512-1.392C339.352,168.616,327.384,156.648,313.392,147.512z"/>
    <g>
</g>
    <g>
</g>
    <g>
</g>
    <g>
</g>
    <g>
</g>
    <g>
</g>
    <g>
</g>
    <g>
</g>
    <g>
</g>
    <g>
</g>
    <g>
</g>
    <g>
</g>
    <g>
</g>
    <g>
</g>
    <g>
</g>
</svg>
