<svg id="Layer_1" height="51" viewBox="0 0 512 512" width="51px" xmlns="http://www.w3.org/2000/svg" data-name="Layer 1">
<!-- hand -->
<path d="m454.43 414.05a28.545 28.545 0 0 1 1.07 39.24c-.34.38-.7.76-1.07 1.12l-.03.02a28.542 28.542 0 0 1 -40.37 0l-83.53-83.49 7.96-7.96 24.67-24.65 7.78-7.77z" fill="#4717f6"/>
<path d="m363.13 338.33-24.67 24.65-22.66-22.65-.03-.04a165.08 165.08 0 0 0 24.65-24.65l.04.03 22.66 22.65z" fill="white"/>
<path d="m376.71 212.88a162.926 162.926 0 0 1 -36.29 102.76 165.08 165.08 0 0 1 -24.65 24.65 163.775 163.775 0 0 1 -266.56-127.41c0-90.39 73.31-163.67 163.75-163.67s163.75 73.28 163.75 163.67zm-41.78 0a121.975 121.975 0 1 0 -121.97 121.92 121.941 121.941 0 0 0 121.97-121.92z" fill="#4717f6"/>
<path d="m212.96 90.97a121.915 121.915 0 1 1 -121.98 121.91 121.941 121.941 0 0 1 121.98-121.91z" fill="white"/>
<g fill="#083863"><path d="m186.8 168.272a6 6 0 0 0 -8.448-.792l-48.96 40.57a6 6 0 0 0 0 9.24l48.96 40.58a6 6 0 0 0 7.658-9.24l-43.386-35.96 43.385-35.95a6 6 0 0 0 .791-8.448z"/>
<path d="m296.708 208.05-48.96-40.57a6 6 0 0 0 -7.656 9.24l43.385 35.95-43.386 35.96a6 6 0 0 0 7.658 9.24l48.96-40.58a6 6 0 0 0 0-9.24z"/>
<path d="m223.059 146.558a6 6 0 0 0 -6.831 5.034l-18.321 121.02a6 6 0 0 0 5.034 6.83 6.081 6.081 0 0 0 .907.069 6 6 0 0 0 5.924-5.1l18.321-121.02a6 6 0 0 0 -5.034-6.833z"/>
<path d="m212.96 84.97c-70.568 0-127.98 57.38-127.98 127.91s57.412 127.92 127.98 127.92 127.97-57.385 127.97-127.92-57.408-127.91-127.97-127.91zm0 243.83a116.082 116.082 0 0 1 -115.98-115.92c0-63.913 52.029-115.91 115.98-115.91a115.915 115.915 0 1 1 0 231.83z"/>
<path d="m375.152 326.317a6 6 0 0 0 -8.482 0l-3.539 3.534-14.716-14.71a170.077 170.077 0 0 0 34.295-102.261c0-93.556-76.149-169.67-169.75-169.67s-169.75 76.114-169.75 169.67 76.149 169.68 169.75 169.68a170.241 170.241 0 0 0 102.308-34.278l14.707 14.7-3.717 3.715a6 6 0 0 0 0 8.487l83.56 83.521a34.495 34.495 0 0 0 48.606.181c.065-.057.128-.116.19-.177.449-.438.906-.915 1.325-1.384a34.62 34.62 0 0 0 -1.268-47.518zm-319.942-113.437c0-86.94 70.767-157.67 157.75-157.67s157.75 70.73 157.75 157.67a157.736 157.736 0 0 1 -58.71 122.743 158.127 158.127 0 0 1 -99.04 34.938c-86.983-.001-157.75-70.736-157.75-157.681zm269.412 127.785a171.369 171.369 0 0 0 16.178-16.175l13.846 13.839-16.183 16.171zm126.406 108.625c-.205.229-.42.459-.641.68-.067.06-.133.122-.2.185a22.581 22.581 0 0 1 -31.919.032l-79.285-79.248 31.922-31.9 79.318 79.288a22.534 22.534 0 0 1 .805 30.963z"/></g></svg>