<?xml version="1.0" encoding="iso-8859-1"?>
<!-- Generator: Adobe Illustrator 19.0.0, SVG Export Plug-In . SVG Version: 6.00 Build 0)  -->
<svg height="150px" width="150px" version="1.1" id="Layer_1" xmlns="http://www.w3.org/2000/svg" xmlns:xlink="http://www.w3.org/1999/xlink" x="0px" y="0px"
	 viewBox="0 0 508 508" style="enable-background:new 0 0 508 508;" xml:space="preserve">
<circle style="fill:#FFD05B;" cx="254" cy="254" r="254"/>
<path style="fill:#FF7058;" d="M325.2,362.4C294.4,331.2,259.6,280,270,270c10.4-10.4,61.6,24.4,92.4,55.6
	c31.2,31.2,30,46.4,19.6,56.8C372,392.4,356.4,393.2,325.2,362.4z"/>
<path style="fill:#FFFFFF;" d="M250.4,218.8L219.2,250l36.8,36.8c8.8,8.8,22.8,8.8,31.2,0l0,0c8.8-8.8,8.8-22.8,0-31.2L250.4,218.8z
	"/>
<circle style="fill:#324A5E;" cx="195.2" cy="195.2" r="100.8"/>
<circle style="fill:#84DBFF;" cx="195.2" cy="195.2" r="79.6"/>
<g>
</g>
<g>
</g>
<g>
</g>
<g>
</g>
<g>
</g>
<g>
</g>
<g>
</g>
<g>
</g>
<g>
</g>
<g>
</g>
<g>
</g>
<g>
</g>
<g>
</g>
<g>
</g>
<g>
</g>
</svg>
