<?xml version="1.0" encoding="iso-8859-1"?>
<!-- Generator: Adobe Illustrator 19.0.0, SVG Export Plug-In . SVG Version: 6.00 Build 0)  -->
<svg version="1.1" id="Layer_1" xmlns="http://www.w3.org/2000/svg" x="0px" y="0px"
     viewBox="0 0 496 496" style="enable-background:new 0 0 496 496;" xml:space="preserve">
<path style="fill:#F9BA48;" d="M296,376c-22.696,0-44.464-8.84-60.808-24.496C220.304,362.184,202.392,368,184,368
	c-31.448,0-60.224-16.64-76-43.68C45.2,309.624,0,252.88,0,188C0,110.808,62.808,48,140,48c7.584,0,15.208,0.624,22.744,1.856
	C186.944,18.544,224.424,0,264,0c42.672,0,81.904,20.92,105.8,56.184C439.776,59.248,496,117.496,496,188
	c0,67.288-51.256,123.872-117.648,131.088C365.496,353.336,333.016,376,296,376z"/>
    <g>
	<path style="fill:#333333;" d="M432,320c-22.056,0-40,17.944-40,40s17.944,40,40,40s40-17.944,40-40S454.056,320,432,320z M432,384
		c-13.232,0-24-10.768-24-24s10.768-24,24-24s24,10.768,24,24S445.232,384,432,384z"/>
        <path style="fill:#333333;" d="M388,400c-15.44,0-28,12.56-28,28s12.56,28,28,28s28-12.56,28-28S403.44,400,388,400z M388,440
		c-6.616,0-12-5.384-12-12s5.384-12,12-12s12,5.384,12,12S394.616,440,388,440z"/>
        <path style="fill:#333333;" d="M336,448c-13.232,0-24,10.768-24,24s10.768,24,24,24s24-10.768,24-24S349.232,448,336,448z M336,480
		c-4.416,0-8-3.584-8-8s3.584-8,8-8s8,3.584,8,8S340.416,480,336,480z"/>
        <path style="fill:#333333;" d="M200,148c0-28.672-23.328-52-52-52h-36v192h36c28.672,0,52-23.328,52-52
		c0-18.496-9.72-34.784-24.312-44C190.28,182.784,200,166.496,200,148z M148,184h-12v16h12c19.848,0,36,16.152,36,36
		s-16.152,36-36,36h-20V112h20c19.848,0,36,16.152,36,36S167.848,184,148,184z"/>
        <polygon style="fill:#333333;" points="224,112 240,112 240,272 224,272 224,288 272,288 272,272 256,272 256,112 272,112 272,96
		224,96 	"/>
        <path style="fill:#333333;" d="M384,244v-60h-40v16h24v44c0,15.44-12.56,28-28,28s-28-12.56-28-28V140c0-15.44,12.56-28,28-28
		s28,12.56,28,28h16V96h-16v10.088C360.392,99.792,350.624,96,340,96c-24.256,0-44,19.744-44,44v104c0,24.256,19.744,44,44,44
		S384,268.256,384,244z"/>
</g>
    <g>
</g>
    <g>
</g>
    <g>
</g>
    <g>
</g>
    <g>
</g>
    <g>
</g>
    <g>
</g>
    <g>
</g>
    <g>
</g>
    <g>
</g>
    <g>
</g>
    <g>
</g>
    <g>
</g>
    <g>
</g>
    <g>
</g>
</svg>
